# xmcd
#
# Track frame offsets:
# 150
# 24060
# 26209
# 49529
# 56621
# 80518
# 94476
# 111410
# 129443
# 143354
# 163890
# 180722
# 198009
# 216887
# 232684
# 247330
# 269725
# 282841
#
# Disc length: 4091 seconds
#
# Revision: 1
# Processed by: cddbd v1.5.2PL0 Copyright (c) Steve Scherf et al.
# Submitted via: CedeCatalogueitor 2.6.0.6 http://personales.ya.com/cdcatalogueitor
#
DISCID=000ff912
DTITLE=Ani Difranco - Canon
DYEAR=1900
DGENRE=
TTITLE0=Hello Birmingham
TTITLE1=This Box Contains
TTITLE2=Grey
TTITLE3=Prson Prism
TTITLE4=Marrow
TTITLE5=Here For Now
TTITLE6=Subdivisio
TTITLE7=Rain Check
TTITLE8=Swim
TTITLE9=Paradigm
TTITLE10=Manhole
TTITLE11=Studying Stones
TTITLE12=Hypnotiezed
TTITLE13=78% H20
TTITLE14=Millennium Theater
TTITLE15=Your Next Boldmove
TTITLE16=Both Hands
TTITLE17=Overlap
EXTD=
EXTT0=
EXTT1=
EXTT2=
EXTT3=
EXTT4=
EXTT5=
EXTT6=
EXTT7=
EXTT8=
EXTT9=
EXTT10=
EXTT11=
EXTT12=
EXTT13=
EXTT14=
EXTT15=
EXTT16=
EXTT17=
PLAYORDER=
